<?xml version="1.0" encoding="utf-8"?>
<!-- Generator: Adobe Illustrator 19.2.1, SVG Export Plug-In . SVG Version: 6.00 Build 0)  -->
<svg version="1.1" id="Layer_1" xmlns="http://www.w3.org/2000/svg" xmlns:xlink="http://www.w3.org/1999/xlink" x="0px" y="0px"
	 width="234.2px" height="23.3px" viewBox="0 0 234.2 23.3" enable-background="new 0 0 234.2 23.3" xml:space="preserve">
<g>
	<g enable-background="new    ">
		<path fill="#200E38" d="M2,7.4h3.1c1.5,0,2.7,1,2.7,2.7c0,1.6-1.1,2.7-2.7,2.7H3.2v3.1H2V7.4z M4.9,11.7c1,0,1.6-0.6,1.6-1.7
			S5.9,8.4,4.9,8.4H3.2v3.3H4.9z"/>
		<path fill="#200E38" d="M11.3,7.4h2.6c0.9,0,1.3,0.1,1.6,0.2c0.9,0.3,1.4,1.2,1.4,2.3c0,1.1-0.6,2-1.5,2.3v0c0,0,0.1,0.1,0.3,0.4
			l1.8,3.3h-1.3l-1.8-3.4h-1.8v3.4h-1.2V7.4z M14.2,11.4c0.9,0,1.5-0.6,1.5-1.5c0-0.6-0.2-1.1-0.7-1.3c-0.2-0.1-0.5-0.2-1.2-0.2
			h-1.4v3H14.2z"/>
		<path fill="#200E38" d="M21,7.4h4.9v1h-3.7V11h3v1h-3v2.7h3.9v1H21V7.4z"/>
		<path fill="#200E38" d="M29.9,14c0,0,0.9,0.9,2.2,0.9c0.8,0,1.5-0.4,1.5-1.2c0-1.8-4.1-1.4-4.1-4c0-1.3,1.1-2.4,2.7-2.4
			c1.6,0,2.4,0.9,2.4,0.9L34,9c0,0-0.8-0.7-1.9-0.7c-0.9,0-1.5,0.6-1.5,1.2c0,1.8,4.1,1.3,4.1,4c0,1.3-1,2.4-2.7,2.4
			c-1.8,0-2.8-1.1-2.8-1.1L29.9,14z"/>
		<path fill="#200E38" d="M38.4,14c0,0,0.9,0.9,2.2,0.9c0.8,0,1.5-0.4,1.5-1.2c0-1.8-4.1-1.4-4.1-4c0-1.3,1.1-2.4,2.7-2.4
			c1.6,0,2.4,0.9,2.4,0.9l-0.5,1c0,0-0.8-0.7-1.9-0.7c-0.9,0-1.5,0.6-1.5,1.2c0,1.8,4.1,1.3,4.1,4c0,1.3-1,2.4-2.7,2.4
			c-1.8,0-2.8-1.1-2.8-1.1L38.4,14z"/>
	</g>
</g>
<g>
	<g enable-background="new    ">
		<path fill="#200E38" d="M163.6,8.4h-2.9v-1h7v1h-2.9v7.4h-1.2V8.4z"/>
		<path fill="#200E38" d="M174.5,7.2c2.4,0,4.3,1.9,4.3,4.3c0,2.5-1.9,4.4-4.3,4.4c-2.4,0-4.4-1.9-4.4-4.4
			C170.2,9.1,172.1,7.2,174.5,7.2z M174.5,14.9c1.7,0,3.1-1.4,3.1-3.3c0-1.8-1.4-3.2-3.1-3.2c-1.7,0-3.1,1.4-3.1,3.2
			C171.4,13.4,172.8,14.9,174.5,14.9z"/>
		<path fill="#200E38" d="M187.7,7.4h3.1c1.5,0,2.7,1,2.7,2.7c0,1.6-1.1,2.7-2.7,2.7h-1.9v3.1h-1.2V7.4z M190.6,11.7
			c1,0,1.6-0.6,1.6-1.7s-0.6-1.6-1.6-1.6h-1.7v3.3H190.6z"/>
		<path fill="#200E38" d="M200.8,13.4h-3.2l-0.8,2.4h-1.2l3-8.5h1.2l3,8.5h-1.2L200.8,13.4z M199.2,8.5c0,0-0.2,0.8-0.3,1.2
			l-0.9,2.7h2.6l-0.9-2.7C199.4,9.3,199.3,8.5,199.2,8.5L199.2,8.5z"/>
		<path fill="#200E38" d="M206,7.4h1.2v5.5c0,1.3,0.8,2.1,2.1,2.1c1.3,0,2.2-0.8,2.2-2.1V7.4h1.2v5.5c0,1.9-1.4,3.1-3.3,3.1
			c-2,0-3.3-1.3-3.3-3.1V7.4z"/>
		<path fill="#200E38" d="M216.8,14c0,0,0.9,0.9,2.2,0.9c0.8,0,1.5-0.4,1.5-1.2c0-1.8-4.1-1.4-4.1-4c0-1.3,1.1-2.4,2.7-2.4
			c1.6,0,2.4,0.9,2.4,0.9l-0.5,1c0,0-0.8-0.7-1.9-0.7c-0.9,0-1.5,0.6-1.5,1.2c0,1.8,4.1,1.3,4.1,4c0,1.3-1,2.4-2.7,2.4
			c-1.8,0-2.8-1.1-2.8-1.1L216.8,14z"/>
		<path fill="#200E38" d="M225.3,7.4h4.9v1h-3.7V11h3v1h-3v2.7h3.9v1h-5.1V7.4z"/>
	</g>
</g>
<g>
	<path fill="#200E38" d="M147.1,1v21.3H58.9V1H147.1 M148.1,0H57.9v23.3h90.2V0L148.1,0z"/>
</g>
<g>
	<g enable-background="new    ">
		<path fill="#200E38" d="M72.1,14.3c0,0,0.7,0.8,1.8,0.8c0.7,0,1.2-0.4,1.2-1c0-1.5-3.4-1.2-3.4-3.4c0-1.1,0.9-2,2.3-2
			c1.3,0,2,0.7,2,0.7l-0.4,0.8c0,0-0.6-0.6-1.5-0.6c-0.7,0-1.3,0.5-1.3,1c0,1.5,3.4,1.1,3.4,3.4c0,1.1-0.8,2-2.2,2
			c-1.5,0-2.3-0.9-2.3-0.9L72.1,14.3z"/>
		<path fill="#200E38" d="M79.5,8.8h2.6c1.3,0,2.2,0.9,2.2,2.2c0,1.3-0.9,2.2-2.2,2.2h-1.6v2.6h-1V8.8z M82,12.4
			c0.8,0,1.4-0.5,1.4-1.4S82.8,9.6,82,9.6h-1.4v2.7H82z"/>
		<path fill="#200E38" d="M90.9,13.8h-2.7l-0.7,2h-1L89,8.8h1l2.5,7.1h-1L90.9,13.8z M89.5,9.7c0,0-0.2,0.6-0.3,1L88.5,13h2.1
			l-0.8-2.2C89.7,10.4,89.5,9.7,89.5,9.7L89.5,9.7z"/>
		<path fill="#200E38" d="M98.7,8.6c1.7,0,2.6,0.9,2.6,0.9l-0.5,0.7c0,0-0.8-0.8-2-0.8c-1.6,0-2.6,1.2-2.6,2.7c0,1.5,1,2.8,2.6,2.8
			c1.3,0,2.2-0.9,2.2-0.9l0.5,0.7c0,0-1,1.1-2.7,1.1c-2.1,0-3.6-1.6-3.6-3.7C95.1,10.2,96.7,8.6,98.7,8.6z"/>
		<path fill="#200E38" d="M104.8,8.8h4.1v0.9h-3.1v2.2h2.5v0.9h-2.5V15h3.3v0.9h-4.3V8.8z"/>
		<path fill="#200E38" d="M112.5,8.8h2.5c1.2,0,2,0.7,2,1.8c0,0.7-0.3,1.2-0.9,1.5v0c0.7,0.2,1.2,0.9,1.2,1.7c0,1.3-1,2-2.3,2h-2.5
			V8.8z M115,11.7c0.6,0,1-0.4,1-1.1c0-0.6-0.4-1-1.1-1h-1.5v2.1H115z M115.1,15c0.8,0,1.2-0.5,1.2-1.2s-0.5-1.2-1.2-1.2h-1.6V15
			H115.1z"/>
		<path fill="#200E38" d="M124.4,13.8h-2.7l-0.7,2h-1l2.5-7.1h1l2.5,7.1h-1L124.4,13.8z M123.1,9.7c0,0-0.2,0.6-0.3,1L122,13h2.1
			l-0.8-2.2C123.2,10.4,123.1,9.7,123.1,9.7L123.1,9.7z"/>
		<path fill="#200E38" d="M129.2,8.8h2.2c0.7,0,1,0.1,1.3,0.2c0.7,0.3,1.2,1,1.2,1.9c0,0.9-0.5,1.7-1.3,1.9v0c0,0,0.1,0.1,0.2,0.3
			l1.5,2.7h-1.1l-1.5-2.8h-1.5v2.8h-1V8.8z M131.6,12.2c0.8,0,1.3-0.5,1.3-1.3c0-0.5-0.2-0.9-0.6-1.1c-0.2-0.1-0.4-0.2-1-0.2h-1.1
			v2.5H131.6z"/>
	</g>
</g>
</svg>
