<?xml version="1.0" encoding="utf-8"?>
<!-- Generator: Adobe Illustrator 19.2.1, SVG Export Plug-In . SVG Version: 6.00 Build 0)  -->
<svg version="1.1" id="Layer_1" xmlns="http://www.w3.org/2000/svg" xmlns:xlink="http://www.w3.org/1999/xlink" x="0px" y="0px"
	 width="301.5px" height="31.5px" viewBox="0 0 301.5 31.5" enable-background="new 0 0 301.5 31.5" xml:space="preserve">
<g id="en">
	<g>
		<g>
			<path fill="#FFFFFF" d="M2.4,16.5c0,0,0.9,0.9,2.2,0.9C5.3,17.4,6,17,6,16.2c0-1.8-4.1-1.4-4.1-4c0-1.3,1.1-2.4,2.7-2.4
				c1.6,0,2.4,0.9,2.4,0.9l-0.5,1c0,0-0.8-0.7-1.9-0.7c-0.9,0-1.5,0.6-1.5,1.2c0,1.8,4.1,1.3,4.1,4c0,1.3-1,2.4-2.7,2.4
				c-1.8,0-2.8-1.1-2.8-1.1L2.4,16.5z"/>
			<path fill="#FFFFFF" d="M15,9.8c2,0,3.1,1.1,3.1,1.1l-0.6,0.9c0,0-1-0.9-2.4-0.9c-1.9,0-3.1,1.4-3.1,3.2c0,1.8,1.3,3.3,3.1,3.3
				c1.6,0,2.6-1.1,2.6-1.1l0.6,0.9c0,0-1.2,1.3-3.3,1.3c-2.5,0-4.3-1.9-4.3-4.4C10.7,11.6,12.6,9.8,15,9.8z"/>
			<path fill="#FFFFFF" d="M22.4,9.9H25c0.9,0,1.3,0.1,1.6,0.2c0.9,0.3,1.4,1.2,1.4,2.3c0,1.1-0.6,2-1.5,2.3v0c0,0,0.1,0.1,0.3,0.4
				l1.8,3.3h-1.3L25.4,15h-1.8v3.4h-1.2V9.9z M25.3,14c0.9,0,1.5-0.6,1.5-1.5c0-0.6-0.2-1.1-0.7-1.3c-0.2-0.1-0.5-0.2-1.2-0.2h-1.4
				v3H25.3z"/>
			<path fill="#FFFFFF" d="M36.2,9.8c2.4,0,4.3,1.9,4.3,4.3c0,2.5-1.9,4.4-4.3,4.4c-2.4,0-4.4-1.9-4.4-4.4
				C31.9,11.6,33.8,9.8,36.2,9.8z M36.2,17.4c1.7,0,3.1-1.4,3.1-3.3c0-1.8-1.4-3.2-3.1-3.2c-1.7,0-3.1,1.4-3.1,3.2
				C33.1,16,34.5,17.4,36.2,17.4z"/>
			<path fill="#FFFFFF" d="M44.7,9.9h1.2v7.4h3.8v1h-5V9.9z"/>
			<path fill="#FFFFFF" d="M53.5,9.9h1.2v7.4h3.8v1h-5V9.9z"/>
			<path fill="#FFFFFF" d="M67.7,9.9h2.8c2.6,0,4.3,1.5,4.3,4.2c0,2.7-1.7,4.2-4.3,4.2h-2.8V9.9z M70.4,17.3c1.9,0,3.2-1.1,3.2-3.2
				c0-2.1-1.3-3.2-3.2-3.2h-1.5v6.4H70.4z"/>
			<path fill="#FFFFFF" d="M82.8,9.8c2.4,0,4.3,1.9,4.3,4.3c0,2.5-1.9,4.4-4.3,4.4c-2.4,0-4.4-1.9-4.4-4.4
				C78.4,11.6,80.3,9.8,82.8,9.8z M82.8,17.4c1.7,0,3.1-1.4,3.1-3.3c0-1.8-1.4-3.2-3.1-3.2c-1.7,0-3.1,1.4-3.1,3.2
				C79.6,16,81,17.4,82.8,17.4z"/>
			<path fill="#FFFFFF" d="M96.2,9.9l1.7,6.2c0.1,0.5,0.2,0.9,0.2,0.9h0c0,0,0-0.4,0.2-0.9l1.6-6.2h1.2l-2.2,8.5h-1.4L96,12.9
				c-0.1-0.5-0.3-1.2-0.3-1.2h0c0,0-0.1,0.7-0.3,1.2L94,18.4h-1.4l-2.2-8.5h1.2l1.5,6.2c0.1,0.5,0.2,0.9,0.2,0.9h0
				c0,0,0.1-0.4,0.2-0.9l1.7-6.2H96.2z"/>
			<path fill="#FFFFFF" d="M105,9.9h1.2l3.8,5.5c0.3,0.5,0.7,1.2,0.7,1.2h0c0,0-0.1-0.8-0.1-1.2V9.9h1.2v8.5h-1.2l-3.8-5.5
				c-0.3-0.5-0.7-1.2-0.7-1.2h0c0,0,0.1,0.8,0.1,1.2v5.5H105V9.9z"/>
		</g>
	</g>
	<g>
		<g>
			<path fill="#FFFFFF" d="M198.3,10.9h-2.9v-1h7v1h-2.9v7.4h-1.2V10.9z"/>
			<path fill="#FFFFFF" d="M209.6,9.8c2.4,0,4.3,1.9,4.3,4.3c0,2.5-1.9,4.4-4.3,4.4c-2.4,0-4.4-1.9-4.4-4.4
				C205.3,11.6,207.2,9.8,209.6,9.8z M209.6,17.4c1.7,0,3.1-1.4,3.1-3.3c0-1.8-1.4-3.2-3.1-3.2c-1.7,0-3.1,1.4-3.1,3.2
				C206.5,16,207.9,17.4,209.6,17.4z"/>
			<path fill="#FFFFFF" d="M227.3,9.8c2,0,3.1,1.1,3.1,1.1l-0.6,0.9c0,0-1-0.9-2.4-0.9c-1.9,0-3.1,1.4-3.1,3.2
				c0,1.8,1.3,3.3,3.1,3.3c1.6,0,2.6-1.1,2.6-1.1l0.6,0.9c0,0-1.2,1.3-3.3,1.3c-2.5,0-4.3-1.9-4.3-4.4C223,11.6,224.9,9.8,227.3,9.8
				z"/>
			<path fill="#FFFFFF" d="M238.4,9.8c2.4,0,4.3,1.9,4.3,4.3c0,2.5-1.9,4.4-4.3,4.4c-2.4,0-4.4-1.9-4.4-4.4
				C234,11.6,235.9,9.8,238.4,9.8z M238.4,17.4c1.7,0,3.1-1.4,3.1-3.3c0-1.8-1.4-3.2-3.1-3.2c-1.7,0-3.1,1.4-3.1,3.2
				C235.3,16,236.7,17.4,238.4,17.4z"/>
			<path fill="#FFFFFF" d="M246.9,9.9h1.2l3.8,5.5c0.3,0.5,0.7,1.2,0.7,1.2h0c0,0-0.1-0.8-0.1-1.2V9.9h1.2v8.5h-1.2l-3.8-5.5
				c-0.3-0.5-0.7-1.2-0.7-1.2h0c0,0,0.1,0.8,0.1,1.2v5.5h-1.2V9.9z"/>
			<path fill="#FFFFFF" d="M260.2,10.9h-2.9v-1h7v1h-2.9v7.4h-1.2V10.9z"/>
			<path fill="#FFFFFF" d="M267.9,9.9h1.2v8.5h-1.2V9.9z"/>
			<path fill="#FFFFFF" d="M273.8,9.9h1.2l3.8,5.5c0.3,0.5,0.7,1.2,0.7,1.2h0c0,0-0.1-0.8-0.1-1.2V9.9h1.2v8.5h-1.2l-3.8-5.5
				c-0.3-0.5-0.7-1.2-0.7-1.2h0c0,0,0.1,0.8,0.1,1.2v5.5h-1.2V9.9z"/>
			<path fill="#FFFFFF" d="M285.1,9.9h1.2v5.5c0,1.3,0.8,2.1,2.1,2.1c1.3,0,2.2-0.8,2.2-2.1V9.9h1.2v5.5c0,1.9-1.4,3.1-3.3,3.1
				c-2,0-3.3-1.3-3.3-3.1V9.9z"/>
			<path fill="#FFFFFF" d="M296.4,9.9h4.9v1h-3.7v2.7h3v1h-3v2.7h3.9v1h-5.1V9.9z"/>
		</g>
	</g>
	<g>
		<path fill="#FFFFFF" d="M154.1,0c-5,0-9.1,4.1-9.1,9.1v13.3c0,5,4.1,9.1,9.1,9.1c5,0,9.1-4.1,9.1-9.1V9.1
			C163.2,4.1,159.1,0,154.1,0z M162.1,22.4c0,4.4-3.6,8-8,8s-8-3.6-8-8V9.1c0-4.4,3.6-8,8-8s8,3.6,8,8V22.4z"/>
	</g>
	<path fill="#FFFFFF" d="M154.1,10.5L154.1,10.5c-0.3,0-0.6-0.3-0.6-0.6V6.5c0-0.3,0.3-0.6,0.6-0.6l0,0c0.3,0,0.6,0.3,0.6,0.6v3.4
		C154.7,10.2,154.4,10.5,154.1,10.5z"/>
</g>
<g id="fr" display="none">
	<g display="inline">
		<g>
			<path fill="#FFFFFF" d="M11.4,9.9h2.8c2.6,0,4.3,1.5,4.3,4.2c0,2.7-1.7,4.2-4.3,4.2h-2.8V9.9z M14.1,17.3c1.9,0,3.2-1.1,3.2-3.2
				c0-2.1-1.3-3.2-3.2-3.2h-1.5v6.4H14.1z"/>
			<path fill="#FFFFFF" d="M22.7,9.9h4.9v1h-3.7v2.7h3v1h-3v2.7h3.9v1h-5.1V9.9z M25.6,7.8h1.2l-1.2,1.5h-1L25.6,7.8z"/>
			<path fill="#FFFFFF" d="M31.9,9.9h4.7v1h-3.5v2.8h3v1h-3v3.6h-1.2V9.9z"/>
			<path fill="#FFFFFF" d="M40.6,9.9h1.2v8.5h-1.2V9.9z"/>
			<path fill="#FFFFFF" d="M46.5,9.9h1.2v7.4h3.8v1h-5V9.9z"/>
			<path fill="#FFFFFF" d="M55.2,9.9h4.9v1h-3.7v2.7h3v1h-3v2.7h3.9v1h-5.1V9.9z"/>
			<path fill="#FFFFFF" d="M63.9,17.6l4.1-5.9c0.3-0.5,0.6-0.8,0.6-0.8v0c0,0-0.2,0-0.6,0h-3.8v-1H70v0.8l-4.1,5.9
				c-0.3,0.5-0.6,0.8-0.6,0.8v0c0,0,0.2,0,0.6,0h4.1v1h-6.2V17.6z"/>
		</g>
	</g>
	<g display="inline">
		<g>
			<path fill="#FFFFFF" d="M154.2,9.9h3.1c1.5,0,2.7,1,2.7,2.7c0,1.6-1.1,2.7-2.7,2.7h-1.9v3.1h-1.2V9.9z M157.1,14.2
				c1,0,1.6-0.6,1.6-1.7s-0.6-1.6-1.6-1.6h-1.7v3.3H157.1z"/>
			<path fill="#FFFFFF" d="M167.7,9.8c2.4,0,4.3,1.9,4.3,4.3c0,2.5-1.9,4.4-4.3,4.4c-2.4,0-4.4-1.9-4.4-4.4
				C163.3,11.6,165.2,9.8,167.7,9.8z M167.7,17.4c1.7,0,3.1-1.4,3.1-3.3c0-1.8-1.4-3.2-3.1-3.2c-1.7,0-3.1,1.4-3.1,3.2
				C164.5,16,165.9,17.4,167.7,17.4z"/>
			<path fill="#FFFFFF" d="M176,9.9h1.2v5.5c0,1.3,0.8,2.1,2.1,2.1c1.3,0,2.2-0.8,2.2-2.1V9.9h1.2v5.5c0,1.9-1.4,3.1-3.3,3.1
				c-2,0-3.3-1.3-3.3-3.1V9.9z"/>
			<path fill="#FFFFFF" d="M187.3,9.9h2.6c0.9,0,1.3,0.1,1.6,0.2c0.9,0.3,1.4,1.2,1.4,2.3c0,1.1-0.6,2-1.5,2.3v0
				c0,0,0.1,0.1,0.3,0.4l1.8,3.3h-1.3l-1.8-3.4h-1.8v3.4h-1.2V9.9z M190.2,14c0.9,0,1.5-0.6,1.5-1.5c0-0.6-0.2-1.1-0.7-1.3
				c-0.2-0.1-0.5-0.2-1.2-0.2h-1.4v3H190.2z"/>
			<path fill="#FFFFFF" d="M206.6,9.8c2,0,3.1,1.1,3.1,1.1l-0.6,0.9c0,0-1-0.9-2.4-0.9c-1.9,0-3.1,1.4-3.1,3.2
				c0,1.8,1.3,3.3,3.1,3.3c1.6,0,2.6-1.1,2.6-1.1l0.6,0.9c0,0-1.2,1.3-3.3,1.3c-2.5,0-4.3-1.9-4.3-4.4
				C202.3,11.6,204.1,9.8,206.6,9.8z"/>
			<path fill="#FFFFFF" d="M217.6,9.8c2.4,0,4.3,1.9,4.3,4.3c0,2.5-1.9,4.4-4.3,4.4c-2.4,0-4.4-1.9-4.4-4.4
				C213.3,11.6,215.2,9.8,217.6,9.8z M217.6,17.4c1.7,0,3.1-1.4,3.1-3.3c0-1.8-1.4-3.2-3.1-3.2c-1.7,0-3.1,1.4-3.1,3.2
				C214.5,16,215.9,17.4,217.6,17.4z"/>
			<path fill="#FFFFFF" d="M226.1,9.9h1.2l3.8,5.5c0.3,0.5,0.7,1.2,0.7,1.2h0c0,0-0.1-0.8-0.1-1.2V9.9h1.2v8.5h-1.2l-3.8-5.5
				c-0.3-0.5-0.7-1.2-0.7-1.2h0c0,0,0.1,0.8,0.1,1.2v5.5h-1.2V9.9z"/>
			<path fill="#FFFFFF" d="M239.4,10.9h-2.9v-1h7v1h-2.9v7.4h-1.2V10.9z"/>
			<path fill="#FFFFFF" d="M247.1,9.9h1.2v8.5h-1.2V9.9z"/>
			<path fill="#FFFFFF" d="M253,9.9h1.2l3.8,5.5c0.3,0.5,0.7,1.2,0.7,1.2h0c0,0-0.1-0.8-0.1-1.2V9.9h1.2v8.5h-1.2l-3.8-5.5
				c-0.3-0.5-0.7-1.2-0.7-1.2h0c0,0,0.1,0.8,0.1,1.2v5.5H253V9.9z"/>
			<path fill="#FFFFFF" d="M264.4,9.9h1.2v5.5c0,1.3,0.8,2.1,2.1,2.1c1.3,0,2.2-0.8,2.2-2.1V9.9h1.2v5.5c0,1.9-1.4,3.1-3.3,3.1
				c-2,0-3.3-1.3-3.3-3.1V9.9z"/>
			<path fill="#FFFFFF" d="M275.6,9.9h4.9v1h-3.7v2.7h3v1h-3v2.7h3.9v1h-5.1V9.9z"/>
			<path fill="#FFFFFF" d="M284.9,9.9h2.6c0.9,0,1.3,0.1,1.6,0.2c0.9,0.3,1.4,1.2,1.4,2.3c0,1.1-0.6,2-1.5,2.3v0
				c0,0,0.1,0.1,0.3,0.4l1.8,3.3h-1.3l-1.8-3.4h-1.8v3.4h-1.2V9.9z M287.8,14c0.9,0,1.5-0.6,1.5-1.5c0-0.6-0.2-1.1-0.7-1.3
				c-0.2-0.1-0.5-0.2-1.2-0.2h-1.4v3H287.8z"/>
		</g>
	</g>
	<g display="inline">
		<path fill="#FFFFFF" d="M111.9,0c-5,0-9.1,4.1-9.1,9.1v13.3c0,5,4.1,9.1,9.1,9.1c5,0,9.1-4.1,9.1-9.1V9.1C121,4.1,116.9,0,111.9,0
			z M119.8,22.4c0,4.4-3.6,8-8,8c-4.4,0-8-3.6-8-8V9.1c0-4.4,3.6-8,8-8c4.4,0,8,3.6,8,8V22.4z"/>
	</g>
	<path display="inline" fill="#FFFFFF" d="M111.9,10.5L111.9,10.5c-0.3,0-0.6-0.3-0.6-0.6V6.5c0-0.3,0.3-0.6,0.6-0.6l0,0
		c0.3,0,0.6,0.3,0.6,0.6v3.4C112.4,10.2,112.2,10.5,111.9,10.5z"/>
</g>
</svg>
