<?xml version="1.0" encoding="utf-8"?>
<!-- Generator: Adobe Illustrator 19.2.1, SVG Export Plug-In . SVG Version: 6.00 Build 0)  -->
<svg version="1.1" id="Layer_1" xmlns="http://www.w3.org/2000/svg" xmlns:xlink="http://www.w3.org/1999/xlink" x="0px" y="0px"
	 width="249.8px" height="27.7px" viewBox="0 0 249.8 27.7" enable-background="new 0 0 249.8 27.7" xml:space="preserve">
<g id="en">
	<g>
		<g>
			<path fill="#FFFFFF" d="M0.6,14.6c0,0,0.8,0.8,1.8,0.8c0.7,0,1.2-0.4,1.2-1c0-1.5-3.4-1.2-3.4-3.4c0-1.1,0.9-2,2.3-2
				c1.3,0,2,0.7,2,0.7L4,10.5c0,0-0.6-0.6-1.5-0.6c-0.8,0-1.3,0.5-1.3,1c0,1.5,3.4,1.1,3.4,3.4c0,1.1-0.8,2-2.2,2
				c-1.5,0-2.3-0.9-2.3-0.9L0.6,14.6z"/>
			<path fill="#FFFFFF" d="M11.1,9c1.7,0,2.6,0.9,2.6,0.9l-0.5,0.7c0,0-0.8-0.8-2-0.8c-1.6,0-2.6,1.2-2.6,2.7c0,1.5,1,2.8,2.6,2.8
				c1.3,0,2.2-0.9,2.2-0.9l0.5,0.7c0,0-1,1.1-2.7,1.1c-2.1,0-3.6-1.6-3.6-3.7C7.5,10.6,9.1,9,11.1,9z"/>
			<path fill="#FFFFFF" d="M17.2,9.1h2.2c0.7,0,1,0.1,1.3,0.2c0.7,0.3,1.2,1,1.2,1.9c0,0.9-0.5,1.7-1.3,1.9v0c0,0,0.1,0.1,0.2,0.3
				l1.5,2.7h-1.1l-1.5-2.8h-1.5v2.8h-1V9.1z M19.6,12.5c0.8,0,1.2-0.5,1.2-1.3c0-0.5-0.2-0.9-0.6-1.1c-0.2-0.1-0.4-0.2-1-0.2h-1.1
				v2.5H19.6z"/>
			<path fill="#FFFFFF" d="M28.8,9c2,0,3.6,1.6,3.6,3.6c0,2.1-1.6,3.7-3.6,3.7c-2,0-3.6-1.6-3.6-3.7C25.1,10.6,26.7,9,28.8,9z
				 M28.8,15.4c1.4,0,2.6-1.2,2.6-2.8c0-1.5-1.2-2.7-2.6-2.7c-1.4,0-2.6,1.2-2.6,2.7C26.2,14.2,27.3,15.4,28.8,15.4z"/>
			<path fill="#FFFFFF" d="M35.8,9.1h1v6.2H40v0.9h-4.1V9.1z"/>
			<path fill="#FFFFFF" d="M43.1,9.1h1v6.2h3.2v0.9h-4.1V9.1z"/>
			<path fill="#FFFFFF" d="M55,9.1h2.3c2.2,0,3.6,1.3,3.6,3.5c0,2.2-1.4,3.5-3.6,3.5H55V9.1z M57.3,15.3c1.6,0,2.6-0.9,2.6-2.7
				c0-1.7-1-2.7-2.6-2.7H56v5.3H57.3z"/>
			<path fill="#FFFFFF" d="M67.5,9c2,0,3.6,1.6,3.6,3.6c0,2.1-1.6,3.7-3.6,3.7c-2,0-3.6-1.6-3.6-3.7C63.9,10.6,65.5,9,67.5,9z
				 M67.5,15.4c1.4,0,2.6-1.2,2.6-2.8c0-1.5-1.2-2.7-2.6-2.7c-1.4,0-2.6,1.2-2.6,2.7C64.9,14.2,66.1,15.4,67.5,15.4z"/>
			<path fill="#FFFFFF" d="M78.8,9.1l1.4,5.2c0.1,0.4,0.2,0.7,0.2,0.7h0c0,0,0-0.4,0.1-0.7l1.3-5.2h1l-1.8,7.1h-1.1l-1.2-4.6
				c-0.1-0.4-0.2-1-0.2-1h0c0,0-0.1,0.5-0.2,1l-1.2,4.6h-1.1l-1.8-7.1h1l1.2,5.2c0.1,0.4,0.1,0.7,0.1,0.7h0c0,0,0.1-0.4,0.2-0.7
				l1.4-5.2H78.8z"/>
			<path fill="#FFFFFF" d="M86,9.1h1l3.1,4.6c0.3,0.4,0.6,1,0.6,1h0c0,0-0.1-0.6-0.1-1V9.1h1v7.1h-1l-3.1-4.6c-0.3-0.4-0.6-1-0.6-1
				h0c0,0,0.1,0.6,0.1,1v4.6h-1V9.1z"/>
		</g>
	</g>
	<g>
		<g>
			<path fill="#FFFFFF" d="M163.8,10h-2.4V9.1h5.8V10h-2.4v6.2h-1V10z"/>
			<path fill="#FFFFFF" d="M173.3,9c2,0,3.6,1.6,3.6,3.6c0,2.1-1.6,3.7-3.6,3.7c-2,0-3.6-1.6-3.6-3.7C169.7,10.6,171.2,9,173.3,9z
				 M173.3,15.4c1.4,0,2.6-1.2,2.6-2.8c0-1.5-1.2-2.7-2.6-2.7c-1.4,0-2.6,1.2-2.6,2.7C170.7,14.2,171.8,15.4,173.3,15.4z"/>
			<path fill="#FFFFFF" d="M188,9c1.7,0,2.6,0.9,2.6,0.9l-0.5,0.7c0,0-0.8-0.8-2-0.8c-1.6,0-2.6,1.2-2.6,2.7c0,1.5,1,2.8,2.6,2.8
				c1.3,0,2.2-0.9,2.2-0.9l0.5,0.7c0,0-1,1.1-2.7,1.1c-2.1,0-3.6-1.6-3.6-3.7C184.4,10.6,186,9,188,9z"/>
			<path fill="#FFFFFF" d="M197.2,9c2,0,3.6,1.6,3.6,3.6c0,2.1-1.6,3.7-3.6,3.7c-2,0-3.6-1.6-3.6-3.7C193.6,10.6,195.2,9,197.2,9z
				 M197.2,15.4c1.4,0,2.6-1.2,2.6-2.8c0-1.5-1.2-2.7-2.6-2.7c-1.4,0-2.6,1.2-2.6,2.7C194.6,14.2,195.8,15.4,197.2,15.4z"/>
			<path fill="#FFFFFF" d="M204.3,9.1h1l3.1,4.6c0.3,0.4,0.6,1,0.6,1h0c0,0-0.1-0.6-0.1-1V9.1h1v7.1h-1l-3.1-4.6
				c-0.3-0.4-0.6-1-0.6-1h0c0,0,0.1,0.6,0.1,1v4.6h-1V9.1z"/>
			<path fill="#FFFFFF" d="M215.4,10H213V9.1h5.8V10h-2.4v6.2h-1V10z"/>
			<path fill="#FFFFFF" d="M221.8,9.1h1v7.1h-1V9.1z"/>
			<path fill="#FFFFFF" d="M226.7,9.1h1l3.1,4.6c0.3,0.4,0.6,1,0.6,1h0c0,0-0.1-0.6-0.1-1V9.1h1v7.1h-1l-3.1-4.6
				c-0.3-0.4-0.6-1-0.6-1h0c0,0,0.1,0.6,0.1,1v4.6h-1V9.1z"/>
			<path fill="#FFFFFF" d="M236.2,9.1h1v4.6c0,1.1,0.7,1.7,1.8,1.7c1.1,0,1.8-0.6,1.8-1.7V9.1h1v4.6c0,1.6-1.1,2.6-2.8,2.6
				c-1.6,0-2.8-1-2.8-2.6V9.1z"/>
			<path fill="#FFFFFF" d="M245.5,9.1h4.1V10h-3.1v2.2h2.5V13h-2.5v2.3h3.3v0.9h-4.3V9.1z"/>
		</g>
	</g>
	<g>
		<path fill="#FFFFFF" d="M141.3,17.3l-1.3,3.8l0.5,1.8c0.1,0.3-0.1,0.6-0.4,0.6c0,0-0.1,0-0.1,0c-0.2,0-0.4-0.2-0.5-0.4l-0.5-2
			c0-0.1,0-0.2,0-0.3l1.3-3.8l-2.2-8.2l-1.9,0l0.9,3.3c0.1,0.3-0.1,0.6-0.4,0.6c0,0-0.1,0-0.1,0c-0.2,0-0.4-0.2-0.5-0.4l-0.9-3.4
			c0-0.1,0-0.2,0-0.2l-2,0l0.9,3.3c0.1,0.3-0.1,0.6-0.4,0.6c0,0-0.1,0-0.1,0c-0.2,0-0.4-0.2-0.5-0.4L132,9c0-0.1,0-0.1,0-0.2l-2,0
			l0.9,3.3c0.1,0.3-0.1,0.6-0.4,0.6c-0.3,0.1-0.6-0.1-0.6-0.4l-2.2-8.1c-0.2-0.7-0.8-1-1.5-0.9c-0.7,0.2-1,0.8-0.9,1.5l2.5,9.2
			c0.1,0.5,0.1,1.1-0.2,1.6c-0.3,0.5-0.7,0.8-1.3,1l-0.1,0c-0.1,0-0.3,0-0.4-0.1l-1.6-1.1c-0.6-0.4-1.5-0.3-2,0.4l-0.2,0.3
			c-0.2,0.3-0.3,0.7-0.2,1c0.1,0.4,0.3,0.7,0.6,0.9l7.6,5.2c0.1,0.1,0.2,0.2,0.2,0.3l0.5,2c0.1,0.3-0.1,0.6-0.4,0.6c0,0-0.1,0-0.1,0
			c-0.2,0-0.4-0.2-0.5-0.4l-0.5-1.8l-7.4-5.1c-0.5-0.4-0.9-0.9-1-1.6c-0.1-0.6,0-1.3,0.4-1.8l0.2-0.3c0.8-1.1,2.3-1.4,3.4-0.6l1.4,1
			c0.2-0.1,0.4-0.2,0.5-0.5c0.1-0.2,0.2-0.5,0.1-0.8l-2.5-9.2c-0.3-1.2,0.4-2.5,1.6-2.8c1.2-0.3,2.5,0.4,2.8,1.6l1,3.7l8.7,0.2
			c0.2,0,0.4,0.2,0.5,0.4l2.3,8.7C141.3,17.1,141.3,17.2,141.3,17.3z"/>
	</g>
	<g>
		<path fill="#FFFFFF" d="M112.9,2.3l3.8-2.3l3.8,2.3c0.2,0.1,0.3,0.5,0.2,0.7s-0.5,0.3-0.7,0.2l-2.7-1.6c0,0,0,0.1,0,0.1v10.5
			c0,0.3-0.2,0.5-0.5,0.5c-0.3,0-0.5-0.2-0.5-0.5V1.7c0,0,0-0.1,0-0.1l-2.7,1.6c-0.2,0.1-0.6,0.1-0.7-0.2S112.7,2.4,112.9,2.3z"/>
	</g>
</g>
<g id="fr" display="none">
	<g display="inline">
		<g>
			<path fill="#FFFFFF" d="M8.2,9.1h2.3c2.2,0,3.6,1.3,3.6,3.5c0,2.2-1.4,3.5-3.6,3.5H8.2V9.1z M10.5,15.3c1.6,0,2.6-0.9,2.6-2.7
				c0-1.7-1-2.7-2.6-2.7H9.2v5.3H10.5z"/>
			<path fill="#FFFFFF" d="M17.6,9.1h4.1V10h-3.1v2.2h2.5V13h-2.5v2.3h3.3v0.9h-4.3V9.1z M20.1,7.4h1l-1,1.3h-0.8L20.1,7.4z"/>
			<path fill="#FFFFFF" d="M25.4,9.1h3.9V10h-2.9v2.3h2.5v0.9h-2.5v3h-1V9.1z"/>
			<path fill="#FFFFFF" d="M32.6,9.1h1v7.1h-1V9.1z"/>
			<path fill="#FFFFFF" d="M37.5,9.1h1v6.2h3.2v0.9h-4.1V9.1z"/>
			<path fill="#FFFFFF" d="M44.8,9.1h4.1V10h-3.1v2.2h2.5V13h-2.5v2.3H49v0.9h-4.3V9.1z"/>
			<path fill="#FFFFFF" d="M52,15.5l3.4-4.9c0.3-0.4,0.5-0.6,0.5-0.6v0c0,0-0.2,0-0.5,0h-3.2V9.1h5v0.6l-3.4,4.9
				c-0.3,0.4-0.5,0.6-0.5,0.6v0c0,0,0.2,0,0.5,0h3.4v0.9H52V15.5z"/>
		</g>
	</g>
	<g display="inline">
		<g>
			<path fill="#FFFFFF" d="M127.3,9.1h2.6c1.3,0,2.2,0.9,2.2,2.2c0,1.3-0.9,2.2-2.2,2.2h-1.6v2.6h-1V9.1z M129.7,12.7
				c0.8,0,1.4-0.5,1.4-1.4c0-0.8-0.5-1.3-1.4-1.3h-1.4v2.7H129.7z"/>
			<path fill="#FFFFFF" d="M138.5,9c2,0,3.6,1.6,3.6,3.6c0,2.1-1.6,3.7-3.6,3.7c-2,0-3.6-1.6-3.6-3.7C134.8,10.6,136.4,9,138.5,9z
				 M138.5,15.4c1.4,0,2.6-1.2,2.6-2.8c0-1.5-1.2-2.7-2.6-2.7c-1.4,0-2.6,1.2-2.6,2.7C135.9,14.2,137,15.4,138.5,15.4z"/>
			<path fill="#FFFFFF" d="M145.4,9.1h1v4.6c0,1.1,0.7,1.7,1.8,1.7c1.1,0,1.8-0.6,1.8-1.7V9.1h1v4.6c0,1.6-1.1,2.6-2.8,2.6
				c-1.6,0-2.8-1-2.8-2.6V9.1z"/>
			<path fill="#FFFFFF" d="M154.8,9.1h2.2c0.7,0,1,0.1,1.3,0.2c0.7,0.3,1.2,1,1.2,1.9c0,0.9-0.5,1.7-1.3,1.9v0c0,0,0.1,0.1,0.2,0.3
				l1.5,2.7h-1.1l-1.5-2.8h-1.5v2.8h-1V9.1z M157.2,12.5c0.8,0,1.2-0.5,1.2-1.3c0-0.5-0.2-0.9-0.6-1.1c-0.2-0.1-0.4-0.2-1-0.2h-1.1
				v2.5H157.2z"/>
			<path fill="#FFFFFF" d="M170.9,9c1.7,0,2.6,0.9,2.6,0.9l-0.5,0.7c0,0-0.8-0.8-2-0.8c-1.6,0-2.6,1.2-2.6,2.7c0,1.5,1,2.8,2.6,2.8
				c1.3,0,2.2-0.9,2.2-0.9l0.5,0.7c0,0-1,1.1-2.7,1.1c-2.1,0-3.6-1.6-3.6-3.7C167.3,10.6,168.9,9,170.9,9z"/>
			<path fill="#FFFFFF" d="M180.1,9c2,0,3.6,1.6,3.6,3.6c0,2.1-1.6,3.7-3.6,3.7c-2,0-3.6-1.6-3.6-3.7C176.5,10.6,178.1,9,180.1,9z
				 M180.1,15.4c1.4,0,2.6-1.2,2.6-2.8c0-1.5-1.2-2.7-2.6-2.7c-1.4,0-2.6,1.2-2.6,2.7C177.5,14.2,178.7,15.4,180.1,15.4z"/>
			<path fill="#FFFFFF" d="M187.2,9.1h1l3.1,4.6c0.3,0.4,0.6,1,0.6,1h0c0,0-0.1-0.6-0.1-1V9.1h1v7.1h-1l-3.1-4.6
				c-0.3-0.4-0.6-1-0.6-1h0c0,0,0.1,0.6,0.1,1v4.6h-1V9.1z"/>
			<path fill="#FFFFFF" d="M198.3,10h-2.4V9.1h5.8V10h-2.4v6.2h-1V10z"/>
			<path fill="#FFFFFF" d="M204.7,9.1h1v7.1h-1V9.1z"/>
			<path fill="#FFFFFF" d="M209.6,9.1h1l3.1,4.6c0.3,0.4,0.6,1,0.6,1h0c0,0-0.1-0.6-0.1-1V9.1h1v7.1h-1l-3.1-4.6
				c-0.3-0.4-0.6-1-0.6-1h0c0,0,0.1,0.6,0.1,1v4.6h-1V9.1z"/>
			<path fill="#FFFFFF" d="M219.1,9.1h1v4.6c0,1.1,0.7,1.7,1.8,1.7c1.1,0,1.8-0.6,1.8-1.7V9.1h1v4.6c0,1.6-1.1,2.6-2.8,2.6
				c-1.6,0-2.8-1-2.8-2.6V9.1z"/>
			<path fill="#FFFFFF" d="M228.4,9.1h4.1V10h-3.1v2.2h2.5V13h-2.5v2.3h3.3v0.9h-4.3V9.1z"/>
			<path fill="#FFFFFF" d="M236.2,9.1h2.2c0.7,0,1,0.1,1.3,0.2c0.7,0.3,1.2,1,1.2,1.9c0,0.9-0.5,1.7-1.3,1.9v0c0,0,0.1,0.1,0.2,0.3
				l1.5,2.7h-1.1l-1.5-2.8h-1.5v2.8h-1V9.1z M238.6,12.5c0.8,0,1.2-0.5,1.2-1.3c0-0.5-0.2-0.9-0.6-1.1c-0.2-0.1-0.4-0.2-1-0.2h-1.1
				v2.5H238.6z"/>
		</g>
	</g>
	<g display="inline">
		<path fill="#FFFFFF" d="M106.2,17.3l-1.3,3.8l0.5,1.8c0.1,0.3-0.1,0.6-0.4,0.6c0,0-0.1,0-0.1,0c-0.2,0-0.4-0.2-0.5-0.4l-0.5-2
			c0-0.1,0-0.2,0-0.3l1.3-3.8L103,8.9l-1.9,0l0.9,3.3c0.1,0.3-0.1,0.6-0.4,0.6c0,0-0.1,0-0.1,0c-0.2,0-0.4-0.2-0.5-0.4L100,9.1
			c0-0.1,0-0.2,0-0.2l-2,0l0.9,3.3c0.1,0.3-0.1,0.6-0.4,0.6c0,0-0.1,0-0.1,0c-0.2,0-0.4-0.2-0.5-0.4L97,9c0-0.1,0-0.1,0-0.2l-2,0
			l0.9,3.3c0.1,0.3-0.1,0.6-0.4,0.6c-0.3,0.1-0.6-0.1-0.6-0.4l-2.2-8.1c-0.2-0.7-0.8-1-1.5-0.9c-0.7,0.2-1,0.8-0.9,1.5l2.5,9.2
			c0.1,0.5,0.1,1.1-0.2,1.6c-0.3,0.5-0.7,0.8-1.3,1l-0.1,0c-0.1,0-0.3,0-0.4-0.1l-1.6-1.1c-0.6-0.4-1.5-0.3-2,0.4L87,16.2
			c-0.2,0.3-0.3,0.7-0.2,1c0.1,0.4,0.3,0.7,0.6,0.9l7.6,5.2c0.1,0.1,0.2,0.2,0.2,0.3l0.5,2c0.1,0.3-0.1,0.6-0.4,0.6c0,0-0.1,0-0.1,0
			c-0.2,0-0.4-0.2-0.5-0.4l-0.5-1.8L86.8,19c-0.5-0.4-0.9-0.9-1-1.6c-0.1-0.6,0-1.3,0.4-1.8l0.2-0.3c0.8-1.1,2.3-1.4,3.4-0.6l1.4,1
			c0.2-0.1,0.4-0.2,0.5-0.5c0.1-0.2,0.2-0.5,0.1-0.8l-2.5-9.2c-0.3-1.2,0.4-2.5,1.6-2.8c1.2-0.3,2.5,0.4,2.8,1.6l1,3.7l8.7,0.2
			c0.2,0,0.4,0.2,0.5,0.4l2.3,8.7C106.3,17.1,106.3,17.2,106.2,17.3z"/>
	</g>
	<g display="inline">
		<path fill="#FFFFFF" d="M77.9,2.3L81.7,0l3.8,2.3c0.2,0.1,0.3,0.5,0.2,0.7s-0.5,0.3-0.7,0.2l-2.7-1.6c0,0,0,0.1,0,0.1v10.5
			c0,0.3-0.2,0.5-0.5,0.5c-0.3,0-0.5-0.2-0.5-0.5V1.7c0,0,0-0.1,0-0.1l-2.7,1.6c-0.2,0.1-0.6,0.1-0.7-0.2S77.6,2.4,77.9,2.3z"/>
	</g>
</g>
</svg>
