<?xml version="1.0" encoding="utf-8"?>
<!-- Generator: Adobe Illustrator 19.2.1, SVG Export Plug-In . SVG Version: 6.00 Build 0)  -->
<svg version="1.1" id="Layer_1" xmlns="http://www.w3.org/2000/svg" xmlns:xlink="http://www.w3.org/1999/xlink" x="0px" y="0px"
	 width="363.4px" height="20px" viewBox="0 0 363.4 20" enable-background="new 0 0 363.4 20" xml:space="preserve">
<g>
	<g enable-background="new    ">
		<path fill="#200E38" d="M7.2,11.1H4l-0.8,2.4H1.9l3-8.5h1.2l3,8.5H8L7.2,11.1z M5.6,6.3c0,0-0.2,0.8-0.3,1.2l-0.9,2.7h2.6L5.9,7.5
			C5.8,7,5.6,6.3,5.6,6.3L5.6,6.3z"/>
		<path fill="#200E38" d="M12.5,5.1h3.1c1.5,0,2.7,1,2.7,2.7c0,1.6-1.1,2.7-2.7,2.7h-1.9v3.1h-1.2V5.1z M15.4,9.4
			c1,0,1.6-0.6,1.6-1.7s-0.6-1.6-1.6-1.6h-1.7v3.3H15.4z"/>
		<path fill="#200E38" d="M21.8,5.1h3.1c1.5,0,2.7,1,2.7,2.7c0,1.6-1.1,2.7-2.7,2.7H23v3.1h-1.2V5.1z M24.7,9.4c1,0,1.6-0.6,1.6-1.7
			s-0.6-1.6-1.6-1.6H23v3.3H24.7z"/>
		<path fill="#200E38" d="M30.9,5.1h1.2v5.5c0,1.3,0.8,2.1,2.1,2.1c1.3,0,2.2-0.8,2.2-2.1V5.1h1.2v5.5c0,1.9-1.4,3.1-3.3,3.1
			s-3.3-1.3-3.3-3.1V5.1z"/>
		<path fill="#200E38" d="M43.6,10l-2.8-4.9h1.3l1.6,2.8C43.9,8.4,44.2,9,44.2,9h0c0,0,0.3-0.6,0.5-1.1l1.5-2.8h1.3L44.8,10v3.6
			h-1.2V10z"/>
		<path fill="#200E38" d="M50.8,5.1h4.9v1H52v2.7h3v1h-3v2.7H56v1h-5.1V5.1z"/>
		<path fill="#200E38" d="M59.7,5.1h2.6c0.9,0,1.3,0.1,1.6,0.2c0.9,0.3,1.4,1.2,1.4,2.3c0,1.1-0.6,2-1.5,2.3v0c0,0,0.1,0.1,0.3,0.4
			l1.8,3.3h-1.3l-1.8-3.4h-1.8v3.4h-1.2V5.1z M62.6,9.2c0.9,0,1.5-0.6,1.5-1.5c0-0.6-0.2-1.1-0.7-1.3c-0.2-0.1-0.5-0.2-1.2-0.2h-1.4
			v3H62.6z"/>
		<path fill="#200E38" d="M74.5,11.7c0,0,0.9,0.9,2.2,0.9c0.8,0,1.5-0.4,1.5-1.2c0-1.8-4.1-1.4-4.1-4C74,6,75.2,5,76.7,5
			c1.6,0,2.4,0.9,2.4,0.9l-0.5,1c0,0-0.8-0.7-1.9-0.7c-0.9,0-1.5,0.6-1.5,1.2c0,1.8,4.1,1.3,4.1,4c0,1.3-1,2.4-2.7,2.4
			c-1.8,0-2.8-1.1-2.8-1.1L74.5,11.7z"/>
		<path fill="#200E38" d="M82.9,5.1h1.2v5.5c0,1.3,0.8,2.1,2.1,2.1c1.3,0,2.2-0.8,2.2-2.1V5.1h1.2v5.5c0,1.9-1.4,3.1-3.3,3.1
			s-3.3-1.3-3.3-3.1V5.1z"/>
		<path fill="#200E38" d="M93.7,5.1h2.6c0.9,0,1.3,0.1,1.6,0.2c0.9,0.3,1.4,1.2,1.4,2.3c0,1.1-0.6,2-1.5,2.3v0c0,0,0.1,0.1,0.3,0.4
			l1.8,3.3h-1.3l-1.8-3.4h-1.8v3.4h-1.2V5.1z M96.6,9.2c0.9,0,1.5-0.6,1.5-1.5c0-0.6-0.2-1.1-0.7-1.3c-0.2-0.1-0.5-0.2-1.2-0.2h-1.4
			v3H96.6z"/>
	</g>
</g>
<g>
	<g enable-background="new    ">
		<path fill="#200E38" d="M219.7,5.1h3.1c1.5,0,2.7,1,2.7,2.7c0,1.6-1.1,2.7-2.7,2.7h-1.9v3.1h-1.2V5.1z M222.6,9.4
			c1,0,1.6-0.6,1.6-1.7s-0.6-1.6-1.6-1.6h-1.7v3.3H222.6z"/>
		<path fill="#200E38" d="M232.7,5c2.4,0,4.3,1.9,4.3,4.3c0,2.5-1.9,4.4-4.3,4.4s-4.4-1.9-4.4-4.4C228.4,6.8,230.3,5,232.7,5z
			 M232.7,12.6c1.7,0,3.1-1.4,3.1-3.3c0-1.8-1.4-3.2-3.1-3.2s-3.1,1.4-3.1,3.2C229.6,11.2,231,12.6,232.7,12.6z"/>
		<path fill="#200E38" d="M240.7,5.1h1.2v5.5c0,1.3,0.8,2.1,2.1,2.1c1.3,0,2.2-0.8,2.2-2.1V5.1h1.2v5.5c0,1.9-1.4,3.1-3.3,3.1
			c-2,0-3.3-1.3-3.3-3.1V5.1z"/>
		<path fill="#200E38" d="M251.5,5.1h2.6c0.9,0,1.3,0.1,1.6,0.2c0.9,0.3,1.4,1.2,1.4,2.3c0,1.1-0.6,2-1.5,2.3v0c0,0,0.1,0.1,0.3,0.4
			l1.8,3.3h-1.3l-1.8-3.4h-1.8v3.4h-1.2V5.1z M254.4,9.2c0.9,0,1.5-0.6,1.5-1.5c0-0.6-0.2-1.1-0.7-1.3c-0.2-0.1-0.5-0.2-1.2-0.2
			h-1.4v3H254.4z"/>
		<path fill="#200E38" d="M266.3,5.1h4.7v1h-3.5v2.8h3v1h-3v3.6h-1.2V5.1z"/>
		<path fill="#200E38" d="M278.4,11.1h-3.2l-0.8,2.4h-1.2l3-8.5h1.2l3,8.5h-1.2L278.4,11.1z M276.8,6.3c0,0-0.2,0.8-0.3,1.2
			l-0.9,2.7h2.6l-0.9-2.7C277,7,276.8,6.3,276.8,6.3L276.8,6.3z"/>
		<path fill="#200E38" d="M283.7,5.1h1.2v8.5h-1.2V5.1z"/>
		<path fill="#200E38" d="M289.2,5.1h2.6c0.9,0,1.3,0.1,1.6,0.2c0.9,0.3,1.4,1.2,1.4,2.3c0,1.1-0.6,2-1.5,2.3v0c0,0,0.1,0.1,0.3,0.4
			l1.8,3.3H294l-1.8-3.4h-1.8v3.4h-1.2V5.1z M292.1,9.2c0.9,0,1.5-0.6,1.5-1.5c0-0.6-0.2-1.1-0.7-1.3c-0.2-0.1-0.5-0.2-1.2-0.2h-1.4
			v3H292.1z"/>
		<path fill="#200E38" d="M298.9,5.1h4.9v1h-3.7v2.7h3v1h-3v2.7h3.9v1h-5.1V5.1z"/>
		<path fill="#200E38" d="M312.8,5.1h3.1c1.5,0,2.7,1,2.7,2.7c0,1.6-1.1,2.7-2.7,2.7H314v3.1h-1.2V5.1z M315.7,9.4
			c1,0,1.6-0.6,1.6-1.7s-0.6-1.6-1.6-1.6H314v3.3H315.7z"/>
		<path fill="#200E38" d="M326,11.1h-3.2l-0.8,2.4h-1.2l3-8.5h1.2l3,8.5h-1.2L326,11.1z M324.4,6.3c0,0-0.2,0.8-0.3,1.2l-0.9,2.7
			h2.6l-0.9-2.7C324.6,7,324.4,6.3,324.4,6.3L324.4,6.3z"/>
		<path fill="#200E38" d="M331.1,5.1h1.2v5.5c0,1.3,0.8,2.1,2.1,2.1c1.3,0,2.2-0.8,2.2-2.1V5.1h1.2v5.5c0,1.9-1.4,3.1-3.3,3.1
			c-2,0-3.3-1.3-3.3-3.1V5.1z"/>
		<path fill="#200E38" d="M342,11.7c0,0,0.9,0.9,2.2,0.9c0.8,0,1.5-0.4,1.5-1.2c0-1.8-4.1-1.4-4.1-4c0-1.3,1.1-2.4,2.7-2.4
			c1.6,0,2.4,0.9,2.4,0.9l-0.5,1c0,0-0.8-0.7-1.9-0.7c-0.9,0-1.5,0.6-1.5,1.2c0,1.8,4.1,1.3,4.1,4c0,1.3-1,2.4-2.7,2.4
			c-1.8,0-2.8-1.1-2.8-1.1L342,11.7z"/>
		<path fill="#200E38" d="M350.5,5.1h4.9v1h-3.7v2.7h3v1h-3v2.7h3.9v1h-5.1V5.1z"/>
	</g>
</g>
<path fill="#200E38" d="M205.9,0.9v18.2h-88V0.9H205.9 M206.9,0h-90v20h90V0L206.9,0z"/>
<g>
	<g enable-background="new    ">
		<path fill="#200E38" d="M139.7,6.5h4.1v0.9h-3.1v2.2h2.5v0.9h-2.5v2.3h3.3v0.9h-4.3V6.5z"/>
		<path fill="#200E38" d="M147.4,12c0,0,0.7,0.8,1.8,0.8c0.7,0,1.2-0.4,1.2-1c0-1.5-3.4-1.2-3.4-3.4c0-1.1,0.9-2,2.3-2
			c1.3,0,2,0.7,2,0.7l-0.4,0.8c0,0-0.6-0.6-1.5-0.6c-0.7,0-1.3,0.5-1.3,1c0,1.5,3.4,1.1,3.4,3.4c0,1.1-0.8,2-2.2,2
			c-1.5,0-2.3-0.9-2.3-0.9L147.4,12z"/>
		<path fill="#200E38" d="M154.8,6.5h2.6c1.3,0,2.2,0.9,2.2,2.2c0,1.3-0.9,2.2-2.2,2.2h-1.6v2.6h-1V6.5z M157.3,10.1
			c0.8,0,1.4-0.5,1.4-1.4s-0.5-1.3-1.4-1.3h-1.4v2.7H157.3z"/>
		<path fill="#200E38" d="M166.2,11.5h-2.7l-0.7,2h-1l2.5-7.1h1l2.5,7.1h-1L166.2,11.5z M164.8,7.5c0,0-0.2,0.6-0.3,1l-0.8,2.2h2.1
			l-0.8-2.2C165,8.1,164.9,7.5,164.8,7.5L164.8,7.5z"/>
		<path fill="#200E38" d="M174,6.4c1.7,0,2.6,0.9,2.6,0.9l-0.5,0.7c0,0-0.8-0.8-2-0.8c-1.6,0-2.6,1.2-2.6,2.7c0,1.5,1,2.8,2.6,2.8
			c1.3,0,2.2-0.9,2.2-0.9l0.5,0.7c0,0-1,1.1-2.7,1.1c-2.1,0-3.6-1.6-3.6-3.7C170.4,8,172,6.4,174,6.4z"/>
		<path fill="#200E38" d="M180.1,6.5h4.1v0.9h-3.1v2.2h2.5v0.9h-2.5v2.3h3.3v0.9h-4.3V6.5z"/>
	</g>
</g>
</svg>
