<?xml version="1.0" encoding="utf-8"?>
<!-- Generator: Adobe Illustrator 19.2.1, SVG Export Plug-In . SVG Version: 6.00 Build 0)  -->
<svg version="1.1" id="Layer_1" xmlns="http://www.w3.org/2000/svg" xmlns:xlink="http://www.w3.org/1999/xlink" x="0px" y="0px"
	 width="41.2px" height="45px" viewBox="0 0 41.2 45" enable-background="new 0 0 41.2 45" xml:space="preserve">
<g>
	<path fill="#FFFFFF" d="M17.3,45C7.8,45,0,34.9,0,22.6v-0.6h34.7v0.6C34.7,34.9,26.9,45,17.3,45z M1.2,23.2
		c0.3,11.4,7.4,20.5,16.1,20.5c8.7,0,15.8-9.2,16.1-20.5H1.2z"/>
	<path fill="#FFFFFF" d="M36.4,38.3c-2.7,0-4.8-2.2-4.8-4.8s2.2-4.8,4.8-4.8s4.8,2.2,4.8,4.8S39,38.3,36.4,38.3z M36.4,29.9
		c-2,0-3.6,1.6-3.6,3.6s1.6,3.6,3.6,3.6c2,0,3.6-1.6,3.6-3.6S38.4,29.9,36.4,29.9z"/>
	<path fill="#F26922" d="M14.6,19.7l-1-0.7l1.6-2.6c1-1.6,0.6-3.7-1-4.7c-1.1-0.7-1.8-1.7-2-2.9c-0.3-1.2,0-2.5,0.6-3.5l1.7-2.6
		l1,0.7l-1.7,2.6c-0.5,0.8-0.7,1.7-0.5,2.6c0.2,0.9,0.7,1.7,1.5,2.2c2.2,1.4,2.8,4.3,1.4,6.5L14.6,19.7z"/>
	<path fill="#F26922" d="M20.3,17.1l-1-0.7l1.6-2.6c1-1.6,0.6-3.7-1-4.7c-1.1-0.7-1.8-1.7-2-2.9c-0.3-1.2,0-2.5,0.6-3.5L20.1,0
		l1,0.7l-1.7,2.6C18.9,4.1,18.8,5,19,5.9c0.2,0.9,0.7,1.7,1.5,2.2c2.2,1.4,2.8,4.3,1.4,6.5L20.3,17.1z"/>
</g>
</svg>
