<?xml version="1.0" encoding="utf-8"?>
<!-- Generator: Adobe Illustrator 19.2.1, SVG Export Plug-In . SVG Version: 6.00 Build 0)  -->
<svg version="1.1" id="Layer_1" xmlns="http://www.w3.org/2000/svg" xmlns:xlink="http://www.w3.org/1999/xlink" x="0px" y="0px"
	 width="42.4px" height="45.1px" viewBox="0 0 42.4 45.1" enable-background="new 0 0 42.4 45.1" xml:space="preserve">
<path fill="#F26922" d="M35.9,21.7l-0.2,1.4l-1.2-0.8l0.2-1.3l0-0.1c0.1,0,0.1,0.1,0.2,0.1L35.9,21.7z"/>
<path fill="#F26922" d="M34.7,21L34.7,21l-0.2,1.4l-0.4-0.2c-0.8-0.5-1.7-0.7-2.6-0.5c-0.9,0.2-1.7,0.7-2.2,1.4
	c-1.4,2.1-4.4,2.7-6.5,1.2l-2.5-1.7l0,0L20,22.2c-0.8-0.5-1.7-0.7-2.6-0.5s-1.7,0.7-2.2,1.4c-1.4,2.1-4.3,2.6-6.4,1.3v0l-0.2-1.6
	l0.8,0.5c1.6,1.1,3.7,0.7,4.8-0.9c0.7-1,1.8-1.7,3-2c1.2-0.2,2.5,0,3.5,0.7l2.6,1.8l0,0l0.3,0.2c1.6,1.1,3.7,0.7,4.8-0.9
	c0.7-1,1.8-1.7,3-2C32.5,20.1,33.7,20.3,34.7,21z"/>
<path fill="#F26922" d="M8.9,24.4c0,0-0.1,0-0.1-0.1l-1.2-0.9l-0.2-1.6l1.4,0.9L8.9,24.4z"/>
<path fill="#FFFFFF" d="M36.2,8.4l-1.3,11.3L34.7,21l0,0.1l-0.2,1.3l-2.4,20c-0.1,0.7-0.7,1.2-1.3,1.2H12.3c-0.7,0-1.3-0.5-1.3-1.2
	l-2.1-18v0l-0.2-1.6l-0.2-1.7l-0.2-1.4L7,8.4H5.7L7,19l0.2,1.6l0.2,1.3l0.2,1.6l2.3,19.1c0.1,1.3,1.3,2.3,2.6,2.3h18.5
	c1.3,0,2.4-1,2.6-2.3l2.3-19.4l0.2-1.4l0.2-1.2l0.2-1.6l1.2-10.5H36.2z"/>
</svg>
