<?xml version="1.0" encoding="utf-8"?>
<!-- Generator: Adobe Illustrator 21.0.0, SVG Export Plug-In . SVG Version: 6.00 Build 0)  -->
<svg version="1.1" id="Layer_1" xmlns="http://www.w3.org/2000/svg" xmlns:xlink="http://www.w3.org/1999/xlink" x="0px" y="0px"
	 width="24px" height="24px" viewBox="0 0 24 24" enable-background="new 0 0 24 24" xml:space="preserve">
<path fill="#230D43" d="M15.7,9.8l-0.3,2.8h-2.2c0,3.6,0,8,0,8H9.9c0,0,0-4.4,0-8H8.3V9.8h1.6V7.9c0-1.3,0.6-3.4,3.4-3.4l2.5,0v2.8
	c0,0-1.5,0-1.8,0s-0.7,0.1-0.7,0.8v1.7H15.7z"/>
<path display="none" fill="#220D43" d="M20,15.1V21h-3.4v-5.5c0-1.4-0.5-2.3-1.7-2.3c-0.9,0-1.5,0.6-1.8,1.3
	C13,14.6,13,14.9,13,15.2V21H9.5c0,0,0.1-9.3,0-10.3H13v1.5c0,0,0,0,0,0h0v0c0.5-0.7,1.3-1.7,3.1-1.7C18.3,10.4,20,11.9,20,15.1z"/>
<rect x="4.2" y="10.7" display="none" fill="#220D43" width="3.4" height="10.3"/>
<path display="none" fill="#220D43" d="M7.9,7.5c0,1-0.7,1.8-1.9,1.8h0C4.8,9.2,4,8.5,4,7.5c0-1,0.8-1.8,1.9-1.8
	C7.1,5.7,7.8,6.4,7.9,7.5z"/>
<g display="none">
	<defs>
		<rect id="SVGID_1_" width="24" height="24"/>
	</defs>
	<clipPath id="SVGID_2_" display="inline">
		<use xlink:href="#SVGID_1_"  overflow="visible"/>
	</clipPath>
	<path display="inline" clip-path="url(#SVGID_2_)" fill="#230D43" d="M12,2.2c3.2,0,3.6,0,4.8,0.1c1.2,0.1,1.8,0.2,2.2,0.4
		c0.6,0.2,1,0.5,1.4,0.9c0.4,0.4,0.7,0.8,0.9,1.4c0.2,0.4,0.4,1.1,0.4,2.2c0.1,1.3,0.1,1.6,0.1,4.8c0,3.2,0,3.6-0.1,4.8
		c-0.1,1.2-0.2,1.8-0.4,2.2c-0.2,0.6-0.5,1-0.9,1.4c-0.4,0.4-0.8,0.7-1.4,0.9c-0.4,0.2-1.1,0.4-2.2,0.4c-1.3,0.1-1.6,0.1-4.8,0.1
		c-3.2,0-3.6,0-4.8-0.1c-1.2-0.1-1.8-0.2-2.2-0.4c-0.6-0.2-1-0.5-1.4-0.9c-0.4-0.4-0.7-0.8-0.9-1.4c-0.2-0.4-0.4-1.1-0.4-2.2
		c-0.1-1.3-0.1-1.6-0.1-4.8c0-3.2,0-3.6,0.1-4.8C2.3,6,2.5,5.3,2.6,4.9c0.2-0.6,0.5-1,0.9-1.4C4,3.1,4.4,2.9,4.9,2.6
		C5.3,2.5,6,2.3,7.2,2.2C8.4,2.2,8.8,2.2,12,2.2 M12,0C8.7,0,8.3,0,7.1,0.1C5.8,0.1,4.9,0.3,4.1,0.6C3.4,0.9,2.7,1.3,2,2
		C1.3,2.7,0.9,3.4,0.6,4.1C0.3,4.9,0.1,5.8,0.1,7.1C0,8.3,0,8.7,0,12c0,3.3,0,3.7,0.1,4.9c0.1,1.3,0.3,2.1,0.6,2.9
		C0.9,20.6,1.3,21.3,2,22c0.7,0.7,1.3,1.1,2.1,1.4c0.8,0.3,1.6,0.5,2.9,0.6C8.3,24,8.7,24,12,24c3.3,0,3.7,0,4.9-0.1
		c1.3-0.1,2.1-0.3,2.9-0.6c0.8-0.3,1.5-0.7,2.1-1.4c0.7-0.7,1.1-1.3,1.4-2.1c0.3-0.8,0.5-1.6,0.6-2.9C24,15.7,24,15.3,24,12
		c0-3.3,0-3.7-0.1-4.9c-0.1-1.3-0.3-2.1-0.6-2.9C23.1,3.4,22.7,2.7,22,2c-0.7-0.7-1.3-1.1-2.1-1.4c-0.8-0.3-1.6-0.5-2.9-0.6
		C15.7,0,15.3,0,12,0"/>
	<path display="inline" clip-path="url(#SVGID_2_)" fill="#230D43" d="M12,5.8c-3.4,0-6.2,2.8-6.2,6.2c0,3.4,2.8,6.2,6.2,6.2
		c3.4,0,6.2-2.8,6.2-6.2C18.2,8.6,15.4,5.8,12,5.8 M12,16c-2.2,0-4-1.8-4-4c0-2.2,1.8-4,4-4c2.2,0,4,1.8,4,4C16,14.2,14.2,16,12,16"
		/>
	<path display="inline" clip-path="url(#SVGID_2_)" fill="#230D43" d="M19.8,5.6c0,0.8-0.6,1.4-1.4,1.4C17.6,7,17,6.4,17,5.6
		c0-0.8,0.6-1.4,1.4-1.4C19.2,4.2,19.8,4.8,19.8,5.6"/>
</g>
</svg>
