<?xml version="1.0" encoding="utf-8"?>
<!-- Generator: Adobe Illustrator 19.2.1, SVG Export Plug-In . SVG Version: 6.00 Build 0)  -->
<svg version="1.1" xmlns="http://www.w3.org/2000/svg" xmlns:xlink="http://www.w3.org/1999/xlink" x="0px" y="0px" width="18px"
	 height="18px" viewBox="0 0 18 18" enable-background="new 0 0 18 18" xml:space="preserve">
<g id="Layer_2" display="none">
	<rect display="inline" width="18" height="18"/>
</g>
<g id="Layer_1">
	<path id="f" fill="#FFFFFF" d="M11.8,18V9.8h2.7L15,6.6h-3.2v-2c0-0.9,0.3-1.6,1.6-1.6l1.7,0V0.2c-0.3,0-1.3-0.1-2.5-0.1
		c-2.4,0-4.1,1.5-4.1,4.2v2.4H5.8v3.2h2.8V18H11.8z"/>
	<g display="none">
		<path display="inline" fill="#FFFFFF" d="M9,1.6c2.4,0,2.7,0,3.6,0.1c0.9,0,1.4,0.2,1.7,0.3c0.4,0.2,0.7,0.4,1,0.7
			c0.3,0.3,0.5,0.6,0.7,1c0.1,0.3,0.3,0.8,0.3,1.7c0,0.9,0.1,1.2,0.1,3.6s0,2.7-0.1,3.6c0,0.9-0.2,1.4-0.3,1.7
			c-0.2,0.4-0.4,0.7-0.7,1c-0.3,0.3-0.6,0.5-1,0.7c-0.3,0.1-0.8,0.3-1.7,0.3c-0.9,0-1.2,0.1-3.6,0.1s-2.7,0-3.6-0.1
			c-0.9,0-1.4-0.2-1.7-0.3c-0.4-0.2-0.7-0.4-1-0.7c-0.3-0.3-0.5-0.6-0.7-1c-0.1-0.3-0.3-0.8-0.3-1.7c0-0.9-0.1-1.2-0.1-3.6
			s0-2.7,0.1-3.6C1.7,4.5,1.9,4,2,3.7c0.2-0.4,0.4-0.7,0.7-1C3,2.3,3.3,2.1,3.7,2C4,1.9,4.5,1.7,5.4,1.7C6.3,1.6,6.6,1.6,9,1.6 M9,0
			C6.6,0,6.2,0,5.3,0.1c-1,0-1.6,0.2-2.2,0.4C2.5,0.7,2,1,1.5,1.5C1,2,0.7,2.5,0.5,3.1C0.3,3.7,0.1,4.3,0.1,5.3C0,6.2,0,6.6,0,9
			c0,2.4,0,2.8,0.1,3.7c0,1,0.2,1.6,0.4,2.2c0.2,0.6,0.5,1.1,1,1.6c0.5,0.5,1,0.8,1.6,1c0.6,0.2,1.2,0.4,2.2,0.4C6.2,18,6.6,18,9,18
			s2.8,0,3.7-0.1c1,0,1.6-0.2,2.2-0.4c0.6-0.2,1.1-0.5,1.6-1c0.5-0.5,0.8-1,1-1.6c0.2-0.6,0.4-1.2,0.4-2.2c0-1,0.1-1.3,0.1-3.7
			s0-2.8-0.1-3.7c0-1-0.2-1.6-0.4-2.2c-0.2-0.6-0.5-1.1-1-1.6c-0.5-0.5-1-0.8-1.6-1c-0.6-0.2-1.2-0.4-2.2-0.4C11.8,0,11.4,0,9,0L9,0
			z"/>
		<path display="inline" fill="#FFFFFF" d="M9,4.4C6.4,4.4,4.4,6.4,4.4,9s2.1,4.6,4.6,4.6s4.6-2.1,4.6-4.6S11.6,4.4,9,4.4z M9,12
			c-1.7,0-3-1.3-3-3c0-1.7,1.3-3,3-3s3,1.3,3,3C12,10.7,10.7,12,9,12z"/>
		<circle display="inline" fill="#FFFFFF" cx="13.8" cy="4.2" r="1.1"/>
	</g>
</g>
</svg>
