<?xml version="1.0" encoding="utf-8"?>
<!-- Generator: Adobe Illustrator 19.2.1, SVG Export Plug-In . SVG Version: 6.00 Build 0)  -->
<svg version="1.1" id="Layer_1" xmlns="http://www.w3.org/2000/svg" xmlns:xlink="http://www.w3.org/1999/xlink" x="0px" y="0px"
	 width="327.6px" height="31.1px" viewBox="0 0 327.6 31.1" enable-background="new 0 0 327.6 31.1" xml:space="preserve">
<g>
	<path fill="#220C42" d="M183.1,30h-30c-0.6,0-1-0.4-1-1V12.1c0-0.6,0.4-1,1-1h6.8l0.7-4.2c0.1-0.5,0.5-0.8,1-0.8h13
		c0.5,0,0.9,0.4,1,0.8l0.7,4.2h6.8c0.6,0,1,0.4,1,1V29C184.1,29.6,183.6,30,183.1,30z M154.1,28h28V13.1h-6.6c-0.5,0-0.9-0.4-1-0.8
		L173.7,8h-11.3l-0.7,4.2c-0.1,0.5-0.5,0.8-1,0.8h-6.6V28z"/>
	<path fill="#220C42" d="M168.1,25.3c-3.3,0-6-2.7-6-6s2.7-6,6-6s6,2.7,6,6S171.4,25.3,168.1,25.3z M168.1,15.4c-2.2,0-4,1.8-4,4
		c0,2.2,1.8,4,4,4s4-1.8,4-4C172.1,17.2,170.3,15.4,168.1,15.4z"/>
</g>
<g>
	<path fill="#220C42" d="M234,30.8l-5.7-5.7c-0.4-0.4-0.4-1,0-1.4l15.9-15.9c0.1-0.1,0.3-0.2,0.4-0.2l8.2-2.5
		c0.7-0.2,1.5,0.5,1.2,1.2l-2.5,8.2c0,0.2-0.1,0.3-0.2,0.4l-15.9,15.9C235,31.2,234.4,31.2,234,30.8z M230.5,24.4l4.2,4.2l15-15
		l1.9-6.1l-6.1,1.9L230.5,24.4z"/>
	<path fill="#220C42" d="M246.2,13c-0.1-0.1-0.1-0.2-0.2-0.2L244,9c-0.3-0.5-0.1-1.1,0.4-1.3c0.5-0.3,1.1-0.1,1.4,0.4l1.8,3.4
		l3.4,1.8c0.5,0.3,0.7,0.9,0.4,1.4c-0.3,0.5-0.9,0.7-1.3,0.4l-3.7-1.9C246.3,13.1,246.2,13.1,246.2,13z"/>
	<path fill="#220C42" d="M237.2,27.6l-5.7-5.7c-0.4-0.4-0.4-1,0-1.4c0.4-0.4,1-0.4,1.4,0l5.7,5.7c0.4,0.4,0.4,1,0,1.4
		C238.2,28,237.6,28,237.2,27.6z"/>
</g>
<g>
	<path fill="#220C42" d="M320.6,21.8h-18.5c-0.3,0-0.6-0.2-0.8-0.4l-5.5-8.1c-0.2-0.3-0.2-0.7-0.1-1s0.5-0.5,0.9-0.5h24
		c0.6,0,1,0.4,1,1v8.1C321.6,21.3,321.1,21.8,320.6,21.8z M302.6,19.8h16.9v-6.1h-21.1L302.6,19.8z"/>
	<path fill="#220C42" d="M319.4,26h-14.8c-0.6,0-1-0.4-1-1s0.4-1,1-1h13.8l0-3c0-0.6,0.4-1,1-1c0,0,0,0,0,0c0.6,0,1,0.4,1,1l0,4
		c0,0.3-0.1,0.5-0.3,0.7C319.9,25.9,319.7,26,319.4,26z"/>
	<path fill="#220C42" d="M320.6,13.6c-0.6,0-1-0.4-1-1V7.7c0-0.5,0.3-0.9,0.8-1l6-1.2c0.5-0.1,1.1,0.3,1.2,0.8
		c0.1,0.5-0.2,1.1-0.8,1.2l-5.2,1v4.1C321.6,13.1,321.1,13.6,320.6,13.6z"/>
	<path fill="#220C42" d="M304.4,30.5c-1.8,0-3.2-1.5-3.2-3.3s1.4-3.3,3.2-3.3c1.8,0,3.2,1.5,3.2,3.3S306.2,30.5,304.4,30.5z
		 M304.4,26c-0.7,0-1.2,0.6-1.2,1.3c0,0.7,0.5,1.3,1.2,1.3c0.7,0,1.2-0.6,1.2-1.3C305.6,26.6,305.1,26,304.4,26z"/>
	<path fill="#220C42" d="M318.5,30.5c-1.8,0-3.2-1.5-3.2-3.3s1.4-3.3,3.2-3.3s3.2,1.5,3.2,3.3S320.3,30.5,318.5,30.5z M318.5,26
		c-0.7,0-1.2,0.6-1.2,1.3c0,0.7,0.5,1.3,1.2,1.3s1.2-0.6,1.2-1.3C319.7,26.6,319.2,26,318.5,26z"/>
</g>
<g>
	<path fill="#220C42" d="M31,24.9H1c-0.6,0-1-0.4-1-1V1c0-0.6,0.4-1,1-1h30c0.6,0,1,0.4,1,1v22.9C32,24.5,31.6,24.9,31,24.9z
		 M2,22.9h28V2H2V22.9z"/>
	<path fill="#220C42" d="M30.9,18H1.1c-0.6,0-1-0.4-1-1s0.4-1,1-1h29.8c0.6,0,1,0.4,1,1S31.5,18,30.9,18z"/>
	<ellipse fill="#220C42" cx="16" cy="20.6" rx="0.9" ry="0.9"/>
	<path fill="#220C42" d="M16,29.1c-0.6,0-1-0.4-1-1v-4.2c0-0.6,0.4-1,1-1s1,0.4,1,1v4.2C17,28.6,16.6,29.1,16,29.1z"/>
	<path fill="#220C42" d="M23.3,30H8.7c-0.6,0-1-0.4-1-1s0.4-1,1-1h14.7c0.6,0,1,0.4,1,1S23.9,30,23.3,30z"/>
</g>
<g>
	<path fill="#220C42" d="M95.1,29.9H77c-0.6,0-1-0.4-1-1V17.5c0-0.6,0.4-1,1-1h18.1c0.6,0,1,0.4,1,1v11.5
		C96.1,29.5,95.7,29.9,95.1,29.9z M78,27.9h16.1v-9.5H78V27.9z"/>
	<path fill="#220C42" d="M107,28.1c-0.1,0-0.2,0-0.2,0l-8.1-1.9c-0.4-0.1-0.8-0.5-0.8-1v-3.9c0-0.5,0.3-0.9,0.8-1l8.1-2
		c0.3-0.1,0.6,0,0.9,0.2s0.4,0.5,0.4,0.8v7.8c0,0.3-0.1,0.6-0.4,0.8C107.5,28,107.2,28.1,107,28.1z M100,24.4l6.1,1.5v-5.2l-6.1,1.5
		V24.4z"/>
	<path fill="#220C42" d="M80.3,14.4c-2.1,0-3.8-1.7-3.8-3.7s1.7-3.7,3.8-3.7s3.8,1.7,3.8,3.7S82.4,14.4,80.3,14.4z M80.3,8.9
		c-1,0-1.8,0.8-1.8,1.7s0.8,1.7,1.8,1.7s1.8-0.8,1.8-1.7S81.3,8.9,80.3,8.9z"/>
	<path fill="#220C42" d="M90.8,14.4c-3,0-5.4-2.3-5.4-5.2s2.4-5.2,5.4-5.2c3,0,5.4,2.3,5.4,5.2S93.8,14.4,90.8,14.4z M90.8,5.9
		c-1.9,0-3.4,1.4-3.4,3.2c0,1.8,1.5,3.2,3.4,3.2c1.9,0,3.4-1.4,3.4-3.2C94.2,7.4,92.7,5.9,90.8,5.9z"/>
</g>
</svg>
