<?xml version="1.0" encoding="utf-8"?>
<!-- Generator: Adobe Illustrator 19.2.1, SVG Export Plug-In . SVG Version: 6.00 Build 0)  -->
<svg version="1.1" id="Layer_1" xmlns="http://www.w3.org/2000/svg" xmlns:xlink="http://www.w3.org/1999/xlink" x="0px" y="0px"
	 width="29.6px" height="33px" viewBox="0 0 29.6 33" enable-background="new 0 0 29.6 33" xml:space="preserve">
<path fill="#FFFFFF" d="M28.2,16.1c-1.2-1.1-2.9-1.3-4-1.3c-0.6,0-1.2,0-1.7,0.1c0,0-0.1,0-0.2,0c-0.1,0-0.3-0.1-0.4-0.1
	c-0.6-0.1-1-0.2-1.4-0.6c-0.8-0.7-1.5-1.6-2.2-2.5l-0.5-0.6c-0.9-1.1-2-2.6-2.6-4.1c-0.3-0.8-0.4-1.6-0.4-2.6c0-0.2,0-0.4,0-0.6
	c0-0.7,0.1-1.4-0.2-2.1C14.3,0.6,13.5,0,12.4,0c-0.7,0-1.5,0.3-2.1,0.8c-1.5,1-2.5,3-2.6,5.3C7.6,7.3,8,8.4,8.4,9.5
	C8.7,10.4,9,11.2,9,12.2c0,1.4-1.2,1.8-3,2.2c-0.2,0-0.4,0.1-0.5,0.1c-0.2,0-0.4,0.1-0.6,0.1c-1.3,0.2-2.8,0.5-3.9,1.5
	c-0.8,0.8-1.2,2.1-1,3.4c0.2,0.9,0.6,1.6,1.2,2.1c-0.4,1.5,0.3,3.3,1.8,4.3c-0.1,0.7,0,1.5,0.4,2.2c0.4,0.8,1.1,1.5,1.9,1.8
	c0,1.4,1,2.6,2.5,3.1C8.2,33,8.7,33,9.2,33c0.8,0,1.5-0.1,2.3-0.2c0.2,0,0.5-0.1,0.8-0.1c0.4-0.1,0.9-0.1,1.3-0.2
	c0.9-0.1,1.9-0.2,2.8-0.6c0.7-0.3,1.3-0.8,1.9-1.2c0.2-0.1,0.4-0.3,0.6-0.4c0.2-0.1,0.4-0.3,0.6-0.5c0.4-0.3,0.7-0.7,1.1-0.7
	c0.3-0.1,0.6-0.1,0.9-0.1c0.3,0,0.6-0.1,0.9-0.1h0.2c0.3,0,0.7,0,1,0c0.4,0,0.9,0.1,1.3,0.1c1.1,0,2.4-0.1,3.2-1.2
	c1.3-1.5,1.4-3.8,1.5-6v-0.1C29.6,19.9,29.6,17.4,28.2,16.1L28.2,16.1z M23.4,25.1c-0.3,1.2-1,1.7-2.3,1.8c-0.4,0-0.9,0-1.4,0.3
	c-0.5,0.1-0.9,0.5-1.3,0.9c-0.1,0.1-0.3,0.3-0.4,0.4c-0.2,0.1-0.4,0.3-0.5,0.4c-0.6,0.4-1.1,0.9-1.7,1.1c-0.3,0.1-0.7,0.2-1,0.2
	L14,30.4c-1.4,0.3-2.9,0.4-4.4,0.5c-0.5,0-1,0-1.5-0.1c-0.3,0-0.5-0.2-0.6-0.4c-0.2-0.3-0.2-0.7,0-1.1c0.1-0.3,0.1-0.6-0.1-0.8
	C7.2,28.1,6.8,28,6.4,28h0l0,0c0,0-0.1,0-0.1,0c-0.3,0-0.6-0.2-0.8-0.7c-0.3-0.5-0.3-1.1-0.1-1.4c0.2-0.3,0.3-0.6,0.1-1
	c-0.1-0.3-0.4-0.5-0.7-0.5c-0.7-0.2-1.1-0.7-1.3-1.3c-0.1-0.5-0.1-1.1,0.1-1.4c0.2-0.4,0.3-0.8,0.1-1.2c-0.1-0.3-0.4-0.5-0.7-0.6
	c-0.7-0.1-0.8-0.6-0.9-1.1c-0.1-0.8,0.5-1.4,1.1-1.7c0.9-0.5,1.9-0.7,3-0.8c0.6-0.1,1.1-0.2,1.7-0.3c1.9-0.5,3.2-1.9,3.3-3.6
	c0.1-1.2-0.3-2.4-0.7-3.5C10,8.1,9.7,7.2,9.7,6.3c0-0.9,0.2-1.9,0.7-2.8C10.9,2.8,11.7,2,12.3,2c0,0,0.1,0,0.1,0
	c0.4,0.1,0.4,0.8,0.3,1.5l0,0.2c-0.1,1.1-0.1,2.1,0.2,3.2c0.4,1.5,1.2,2.7,2,3.9c0.2,0.3,0.4,0.5,0.5,0.8c0.8,1.1,1.8,2.3,2.8,3.5
	c0.2,0.2,0.4,0.5,0.7,0.7c0.1,0.1,0.2,0.2,0.3,0.2c0.7,0.5,1.4,0.8,2.3,1c0.7,0.1,1.2,0.2,1.5,0.7c0.6,1,0.6,2.4,0.6,3.5l0,0.3
	C23.7,22.6,23.7,23.9,23.4,25.1L23.4,25.1z M27.6,21.2l0,0.4c0,1.7-0.1,3.5-0.9,4.7c-0.3,0.4-0.8,0.5-1.6,0.5h-0.1
	c0.4-0.9,0.6-1.9,0.7-2.8c0.2-1.7,0.2-3.3-0.1-4.9c-0.1-0.7-0.2-1.4-0.6-2.1c0.6,0.1,1.3,0.2,1.7,0.7C27.6,18.3,27.6,20,27.6,21.2
	L27.6,21.2z M27.6,21.2"/>
</svg>
