<?xml version="1.0" encoding="utf-8"?>
<!-- Generator: Adobe Illustrator 21.0.0, SVG Export Plug-In . SVG Version: 6.00 Build 0)  -->
<svg version="1.1" id="Layer_1" xmlns="http://www.w3.org/2000/svg" xmlns:xlink="http://www.w3.org/1999/xlink" x="0px" y="0px"
	 width="24px" height="24px" viewBox="0 0 24 24" enable-background="new 0 0 24 24" xml:space="preserve">

<path fill="#220D43" d="M20,15.1V21h-3.4v-5.5c0-1.4-0.5-2.3-1.7-2.3c-0.9,0-1.5,0.6-1.8,1.3C13,14.6,13,14.9,13,15.2V21H9.5
	c0,0,0.1-9.3,0-10.3H13v1.5c0,0,0,0,0,0h0v0c0.5-0.7,1.3-1.7,3.1-1.7C18.3,10.4,20,11.9,20,15.1z"/>
<rect x="4.2" y="10.7" fill="#220D43" width="3.4" height="10.3"/>
<path fill="#220D43" d="M7.9,7.5c0,1-0.7,1.8-1.9,1.8h0C4.8,9.2,4,8.5,4,7.5c0-1,0.8-1.8,1.9-1.8C7.1,5.7,7.8,6.4,7.9,7.5z"/>

</svg>
