<?xml version="1.0" encoding="utf-8"?>
<!-- Generator: Adobe Illustrator 19.2.1, SVG Export Plug-In . SVG Version: 6.00 Build 0)  -->
<svg version="1.1" id="Layer_1" xmlns="http://www.w3.org/2000/svg" xmlns:xlink="http://www.w3.org/1999/xlink" x="0px" y="0px"
	 width="260.9px" height="269.4px" viewBox="0 0 260.9 269.4" enable-background="new 0 0 260.9 269.4" xml:space="preserve">
<g>
	<path fill="#230C43" d="M134.8,256c-0.4-2.2,1.7-3.5,1.7-3.5s-0.8-1.2-2.2-1.5c-1.4-0.3-2.1,0.1-2.7,0.4c-0.7,0.3-1,0.3-1,0.3
		c-1,0-1.7-1-3.6-0.6c-1.3,0.3-2.7,1.8-2.9,3.6c-0.2,1.8,0.3,4.1,1.3,5.8c1,1.8,2.1,2.4,2.8,2.5c0.7,0,1.5-0.5,2.4-0.7
		c0.9-0.1,1.4,0.3,2.3,0.6c0.9,0.2,1.2,0,2.2-0.8c1-0.9,1.9-3.3,1.9-3.3S135.3,258.2,134.8,256L134.8,256z M134.8,256"/>
	<path fill="#230C43" d="M132.9,249.6c1-1,0.6-2.5,0.6-2.5s-1.4,0.2-2.3,1.2c-0.9,1-0.8,2.5-0.8,2.5S131.9,250.6,132.9,249.6
		L132.9,249.6z M132.9,249.6"/>
</g>
<ellipse fill="#E86824" cx="130.5" cy="210.9" rx="119.3" ry="4.1"/>
<path fill="#230C43" d="M260.9,5.1v130.7H0V5.1c0-1.4,0.6-2.7,1.5-3.7C2.5,0.6,3.7,0,5.1,0h250.6C258.6,0,260.9,2.3,260.9,5.1z"/>
<rect x="8.4" y="8.4" opacity="0.2" fill="#60C5E0" width="244.1" height="119"/>
<path fill="#D8D9D8" d="M260.9,135.8v22.7c0,2.8-2.3,5.1-5.1,5.1H5.1c-2.8,0-5.1-2.3-5.1-5.1v-22.7H260.9z"/>
<linearGradient id="SVGID_1_" gradientUnits="userSpaceOnUse" x1="130.4573" y1="210.8996" x2="130.4573" y2="163.5998">
	<stop  offset="0" style="stop-color:#DEDEDE"/>
	<stop  offset="0.2769" style="stop-color:#DEDFE0"/>
	<stop  offset="0.4555" style="stop-color:#D9DADB"/>
	<stop  offset="0.6596" style="stop-color:#CCCDCD"/>
	<stop  offset="0.8754" style="stop-color:#B6B6B7"/>
	<stop  offset="1" style="stop-color:#A6A6A6"/>
</linearGradient>
<path fill="url(#SVGID_1_)" d="M155.9,210.9H105c-1.8,0-3.1-1.8-2.4-3.5l15.3-43.8H143l15.3,43.8
	C158.9,209.1,157.7,210.9,155.9,210.9z"/>
</svg>
