<?xml version="1.0" encoding="utf-8"?>
<!-- Generator: Adobe Illustrator 19.2.1, SVG Export Plug-In . SVG Version: 6.00 Build 0)  -->
<svg version="1.1" id="Layer_1" xmlns="http://www.w3.org/2000/svg" xmlns:xlink="http://www.w3.org/1999/xlink" x="0px" y="0px"
	 width="645.5px" height="457.8px" viewBox="0 0 645.5 457.8" enable-background="new 0 0 645.5 457.8" xml:space="preserve">
<text transform="matrix(1 0 0 1 94.7119 157.2644)" fill="#230C43" font-family="'MuseoSans-300'" font-size="20px">sur Mac</text>
<g>
	<text transform="matrix(1 0 0 1 456.4761 157.2643)" fill="#230C43" font-family="'MuseoSans-300'" font-size="20px">sur Windows</text>
</g>
<text transform="matrix(1 0 0 1 82.7607 124.0919)" fill="#230C43" font-family="'MuseoSans-700'" font-size="48px">50%</text>
<g>
	<text transform="matrix(1 0 0 1 467.3457 124.0918)" fill="#230C43" font-family="'MuseoSans-700'" font-size="48px">50%</text>
</g>
<g>
	<path fill="#230C43" d="M134.9,446.3c-0.4-2.2,1.7-3.5,1.7-3.5s-0.8-1.2-2.2-1.5c-1.4-0.3-2.1,0.1-2.7,0.4c-0.7,0.3-1,0.3-1,0.3
		c-1,0-1.7-1-3.6-0.6c-1.3,0.3-2.7,1.8-2.9,3.6c-0.2,1.8,0.3,4.1,1.3,5.8c1,1.8,2.1,2.4,2.8,2.5c0.7,0,1.5-0.5,2.4-0.7
		c0.9-0.1,1.4,0.3,2.3,0.6c0.9,0.2,1.2,0,2.2-0.8c1-0.9,1.9-3.3,1.9-3.3S135.3,448.5,134.9,446.3L134.9,446.3z M134.9,446.3"/>
	<path fill="#230C43" d="M132.9,439.9c1-1,0.6-2.5,0.6-2.5s-1.4,0.2-2.3,1.2c-0.9,1-0.8,2.5-0.8,2.5S132,440.8,132.9,439.9
		L132.9,439.9z M132.9,439.9"/>
</g>
<g>
	<polygon fill="#230C43" points="508.6,446.8 508.6,442.6 513.8,441.9 513.8,446.8 	"/>
	<polygon fill="#230C43" points="514.7,441.7 521.6,440.7 521.6,446.8 514.7,446.8 	"/>
	<polygon fill="#230C43" points="521.6,447.7 521.6,453.7 514.7,452.7 514.7,447.7 	"/>
	<polygon fill="#230C43" points="513.8,452.6 508.6,451.9 508.6,447.7 513.8,447.7 	"/>
</g>
<text transform="matrix(1 0 0 1 179.396 30.9095)" fill="#230C43" font-family="'MuseoSans-300'" font-size="36px">Chez Talk, on est</text>
<ellipse fill="#E86824" cx="130.5" cy="401.2" rx="119.3" ry="4.1"/>
<ellipse fill="#E86824" cx="515.1" cy="398.6" rx="119.3" ry="4.1"/>
<path fill="#230C43" d="M261,195.4v130.7H0V195.4c0-1.4,0.6-2.7,1.5-3.7c0.9-0.9,2.2-1.5,3.6-1.5h250.6
	C258.6,190.3,261,192.6,261,195.4z"/>
<rect x="8.5" y="198.7" opacity="0.2" fill="#60C5E0" width="244.1" height="119"/>
<path fill="#D8D9D8" d="M261,326.1v22.7c0,2.8-2.3,5.1-5.1,5.1H5.2c-2.8,0-5.1-2.3-5.1-5.1v-22.7H261z"/>
<linearGradient id="SVGID_1_" gradientUnits="userSpaceOnUse" x1="130.5009" y1="401.1907" x2="130.5009" y2="353.8909">
	<stop  offset="0" style="stop-color:#DEDEDE"/>
	<stop  offset="0.2769" style="stop-color:#DEDFE0"/>
	<stop  offset="0.4555" style="stop-color:#D9DADB"/>
	<stop  offset="0.6596" style="stop-color:#CCCDCD"/>
	<stop  offset="0.8754" style="stop-color:#B6B6B7"/>
	<stop  offset="1" style="stop-color:#A6A6A6"/>
</linearGradient>
<path fill="url(#SVGID_1_)" d="M155.9,401.2h-50.8c-1.8,0-3.1-1.8-2.4-3.5l15.3-43.8H143l15.3,43.8
	C159,399.4,157.7,401.2,155.9,401.2z"/>
<linearGradient id="SVGID_2_" gradientUnits="userSpaceOnUse" x1="515.2399" y1="347.359" x2="515.0535" y2="450.6496">
	<stop  offset="0" style="stop-color:#1B0F2C"/>
	<stop  offset="0.1141" style="stop-color:#1D112E"/>
	<stop  offset="0.2031" style="stop-color:#201433"/>
	<stop  offset="0.2836" style="stop-color:#26183D"/>
	<stop  offset="0.3591" style="stop-color:#2D1E4A"/>
	<stop  offset="0.431" style="stop-color:#37235B"/>
	<stop  offset="0.5004" style="stop-color:#412971"/>
	<stop  offset="0.5664" style="stop-color:#4A2D8D"/>
	<stop  offset="0.5708" style="stop-color:#4B2E90"/>
	<stop  offset="0.5892" style="stop-color:#4A2D8B"/>
	<stop  offset="0.6103" style="stop-color:#462A82"/>
	<stop  offset="0.6327" style="stop-color:#402574"/>
	<stop  offset="0.656" style="stop-color:#361D61"/>
	<stop  offset="0.6798" style="stop-color:#28114A"/>
	<stop  offset="0.6866" style="stop-color:#230C43"/>
</linearGradient>
<path fill="url(#SVGID_2_)" d="M555.4,399.4h-80.6c0,0,0,0-0.1,0c-2.3,0-2.9-3.2-0.9-4.3l27.8-14.2v-36.9h27V381l27.8,14.2
	c1.7,0.9,1.6,3.6-0.2,4.1C555.9,399.4,555.7,399.4,555.4,399.4z"/>
<rect x="384.7" y="210.3" fill="#230C43" width="260.8" height="135.8"/>
<rect x="393.2" y="218.8" opacity="0.2" fill="#60C5E0" width="243.9" height="119"/>
</svg>
