<?xml version="1.0" encoding="utf-8"?>
<!-- Generator: Adobe Illustrator 19.2.1, SVG Export Plug-In . SVG Version: 6.00 Build 0)  -->
<svg version="1.1" id="Layer_1" xmlns="http://www.w3.org/2000/svg" xmlns:xlink="http://www.w3.org/1999/xlink" x="0px" y="0px"
	 width="42.4px" height="45.1px" viewBox="0 0 42.4 45.1" enable-background="new 0 0 42.4 45.1" xml:space="preserve">
<g>
	<path fill="#FFFFFF" d="M1.2,22.1v0.6c0,3.4,0.6,6.6,1.7,9.5c0.2,0.5,0.4,1,0.6,1.4l0.1-0.3l1-0.2c-0.2-0.4-0.3-0.8-0.5-1.2
		c-1-2.6-1.6-5.5-1.6-8.6h32.2c-0.2,11.4-7.4,20.5-16.1,20.5c-3.1,0-6-1.1-8.4-3.1c-0.4-0.3-0.7-0.6-1-0.9l-0.4,1.3
		c0.3,0.3,0.7,0.6,1,0.9c2.6,2,5.6,3.1,8.8,3.1c9.5,0,17.3-10,17.3-22.4v-0.6H1.2z"/>
	<path fill="#FFFFFF" d="M37.6,38.4c-2.7,0-4.8-2.2-4.8-4.8c0-2.7,2.2-4.8,4.8-4.8c2.7,0,4.8,2.2,4.8,4.8
		C42.4,36.3,40.2,38.4,37.6,38.4z M37.6,30c-2,0-3.6,1.6-3.6,3.6c0,2,1.6,3.6,3.6,3.6c2,0,3.6-1.6,3.6-3.6
		C41.2,31.6,39.6,30,37.6,30z"/>
	<path fill="#F26922" d="M12,22.1h1.1l-0.4-1.9c-0.1-0.3-0.3-0.5-0.6-0.5c-0.3,0-0.5,0.1-0.6,0.4l-0.8,2l-0.5,1.2l-3.1,7.9l-3.2,0.7
		l-1.2,0.3l-0.3,0.1L0,41.1l9.2,2.6L9.7,42l0.4-1.3l1.7-5.8l-3.4-3.3l3.2-8.4L12,22.1z M10.4,35.3l-1.3,4.5l-0.4,1.3l-0.3,1l-6.9-2
		l1.9-6.6l0.1-0.3l1-0.2l2.9-0.6L10.4,35.3z"/>
</g>
</svg>
